<svg xmlns="http://www.w3.org/2000/svg"
shape-rendering="geometricPrecision"
viewBox="0 0 1024 1024">

<path d="
M 52.842 652.981
C 58.823 652.366 64.996 652.762 71.006 652.749
C 79.672 652.73 88.387 652.458 97.045 652.836
C 99.545 655.53 100.61 660.234 102.139 663.534
C 105.248 670.243 108.728 676.792 111.886 683.482
C 122.781 706.555 133.845 729.568 144.566 752.725
C 148.054 760.258 151.145 768.094 155.046 775.422
C 156.369 777.908 157.784 780.413 158.852 783.021
C 159.216 783.909 159.853 784.976 159.767 785.968
C 159.642 787.43 158.368 789.007 157.735 790.31
C 156.249 793.369 154.868 796.473 153.448 799.562
C 148.749 809.779 144.617 820.266 139.968 830.49
C 138.94 829.695 138.207 827.04 137.659 825.836
C 136.056 822.309 134.284 818.857 132.662 815.337
C 130.464 810.567 127.8 806.068 125.456 801.373
C 122.125 794.704 118.96 787.951 115.66 781.267
C 113.362 776.61 110.778 772.095 108.564 767.399
C 105.412 760.712 102.545 753.799 99.183 747.221
C 92.012 733.187 84.604 719.201 77.764 705.006
C 72.366 693.804 66.808 682.685 61.377 671.501
C 58.452 665.476 55.876 659.17 52.561 653.352
C 52.655 653.228 52.748 653.105 52.842 652.981 Z"
opacity="1" fill="rgb(36,51,65)" fill-rule="evenodd" />
<path d="
M 142.368 728.023
C 146.791 719.525 150.217 710.368 153.936 701.544
C 157.73 692.543 161.86 683.676 165.856 674.761
C 168.012 669.953 170.188 665.156 172.35 660.35
C 173.414 657.984 174.321 654.909 176.054 652.973
C 180.498 652.575 185.044 652.802 189.503 652.794
C 199.755 652.774 210.032 653.06 220.278 652.904
C 220.468 653.151 219.747 654.19 219.628 654.41
C 218.655 656.208 217.63 657.943 216.764 659.803
C 213.299 667.246 209.927 674.749 206.377 682.152
C 200.059 695.327 194.602 708.927 188.477 722.189
C 184.275 731.286 179.847 740.281 175.742 749.423
C 171.789 758.226 168.261 767.366 163.984 776
C 159.355 768.186 155.854 759.435 152.043 751.196
C 149.828 746.408 147.833 741.521 145.64 736.726
C 144.484 734.199 143.07 731.695 142.204 729.05
C 142.184 728.358 142.134 728.702 142.368 728.023 Z"
opacity="1" fill="rgb(35,50,64)" fill-rule="evenodd" />
<path d="
M 220.73 694.364
C 221.624 694.15 221.719 695.203 222.322 695.37
C 224.807 694.086 227.06 692.176 229.444 690.706
C 233.185 688.398 237.138 686.438 240.785 683.982
C 244.232 681.661 247.279 678.9 250.32 676.089
C 251.662 674.848 253.037 673.561 254.523 672.494
C 255.649 671.686 257.331 670.917 258.079 669.729
C 258.052 669.427 258.02 669.253 258.226 669.003
C 258.244 704.833 257.955 740.68 257.936 776.517
C 257.93 788.011 258.054 799.5 258.104 810.998
C 258.125 815.659 258.249 820.357 257.944 825.003
C 257.875 826.058 258.084 827.223 257.873 828.256
C 245.583 828.364 233.279 828.131 220.991 828.376
C 220.47 827.976 220.69 827.043 220.688 826.417
C 220.68 824.447 220.665 822.477 220.65 820.507
C 220.588 812.658 220.406 804.783 220.544 796.941
C 220.966 772.985 220.427 748.96 220.42 724.998
C 220.418 718.176 220.361 711.361 220.272 704.54
C 220.23 701.384 219.628 697.372 220.73 694.364 Z"
opacity="1" fill="rgb(35,51,65)" fill-rule="evenodd" />
<path d="
M 258.226 669.003
C 258.02 669.253 258.052 669.427 258.079 669.729
C 257.331 670.917 255.649 671.686 254.523 672.494
C 253.037 673.561 251.662 674.848 250.32 676.089
C 247.279 678.9 244.232 681.661 240.785 683.982
C 237.138 686.438 233.185 688.398 229.444 690.706
C 227.06 692.176 224.807 694.086 222.322 695.37
C 221.719 695.203 221.624 694.15 220.73 694.364
C 222.164 691.275 224.511 688.581 226.477 685.826
C 229.978 680.923 233.674 676.159 237.095 671.195
C 239.511 667.69 241.91 664.161 244.052 660.48
C 245.321 658.298 246.342 655.636 247.982 653.722
C 251.214 652.823 254.949 653.08 258.278 653.037
C 258.713 658.276 258.239 663.74 258.226 669.003 Z"
opacity="1" fill="rgb(1,156,176)" fill-rule="evenodd" />
<path d="
M 393.255 266.797
C 392.917 269.05 394.35 270.959 395.318 272.87
C 397.157 276.496 398.686 280.27 400.317 283.992
C 407.165 299.617 414.643 314.952 421.411 330.615
C 440.594 375.007 461.272 418.75 480.861 462.967
C 486.611 475.948 492.478 488.902 497.99 501.989
C 499.897 506.518 502.091 510.929 503.921 515.488
C 504.401 516.683 505.469 517.829 505.64 519.081
C 506.189 521.942 508.103 525.324 509.706 527.741
C 510.941 526.252 511.47 523.275 512.242 521.461
C 514.587 515.951 517.126 510.522 519.439 504.998
C 524.594 492.689 530.091 480.535 535.273 468.242
C 537.201 463.666 538.739 458.932 540.738 454.383
C 559.708 411.228 577.549 367.556 596.258 324.28
C 604.667 304.828 612.221 284.816 621.642 265.826
C 625.791 265.273 630.316 265.73 634.506 265.723
C 643.172 265.711 651.838 265.726 660.504 265.739
C 663.839 265.744 667.175 265.71 670.509 265.759
C 672.095 265.782 673.888 265.527 675.279 266.398
C 676.241 267.731 675.919 270.156 675.789 271.725
C 682.704 272.115 689.789 271.454 696.722 271.44
C 705.844 271.422 715.026 271.859 724.143 271.436
C 733.385 271.008 742.75 271.406 752.003 271.403
C 772.17 271.396 792.339 271.533 812.508 271.671
C 825.175 271.758 837.842 271.723 850.509 271.868
C 854.204 271.911 857.901 271.912 861.595 272.042
C 862.929 272.089 865.184 271.884 866.369 272.406
C 865.821 273.754 864.086 274.933 863.047 275.945
C 860.564 278.364 857.932 280.62 855.39 282.974
C 844.467 293.091 832.107 302.189 819.856 310.63
C 797.432 326.081 774.033 340.064 749.252 351.438
C 738.513 356.366 727.383 360.49 716.272 364.492
C 691.61 373.376 664.784 376.736 641.459 389.183
C 632.16 394.146 623.072 401.175 616.096 409.103
C 613.524 412.026 611.376 415.423 609.296 418.703
C 604.887 425.656 601.213 433.408 599.44 441.503
C 595.097 461.323 599.465 482.864 610.3 499.93
C 619.29 514.09 632.101 524.571 646.126 533.465
C 652.714 537.643 660.341 540.302 666.732 544.755
C 670.897 547.657 674.389 551.478 677.546 555.43
C 676.161 556.005 674 555.698 672.5 555.722
C 668.668 555.783 664.832 555.735 660.999 555.708
C 653.666 555.656 646.332 555.707 638.998 555.7
C 634.988 555.696 630.508 555.194 626.587 556.189
C 624.696 556.668 622.938 557.807 621.268 558.779
C 615.507 562.129 610.82 566.849 607.671 572.722
C 605.474 576.82 604.764 581.078 604.678 585.682
C 604.597 590.01 604.664 594.339 604.593 598.668
C 604.557 600.896 604.205 603.239 604.378 605.455
C 595.605 605.575 586.789 604.937 578.006 604.919
C 547.34 604.858 516.674 604.98 486.009 604.949
C 464.925 604.927 443.802 604.532 422.732 605.237
C 422.563 597.559 423.416 589.775 421.684 582.206
C 420.706 577.934 418.48 573.854 415.811 570.418
C 411.227 564.516 405.136 559.019 397.923 556.668
C 393.463 555.215 387.987 555.719 383.351 555.705
C 373.17 555.676 362.695 556.518 352.559 555.633
C 356.341 550.041 361.261 544.83 366.483 540.57
C 369.412 538.181 372.946 536.523 376.125 534.49
C 380.847 531.469 385.545 528.268 390.124 525.03
C 403.738 515.401 415.99 502.425 423.275 487.336
C 428.987 475.504 432.058 462.585 431.68 449.436
C 431.391 439.415 429.417 429.59 426.373 420.05
C 424.073 412.845 420.784 406.083 416.911 399.608
C 412.652 392.488 407.56 385.683 401.743 379.749
C 377.93 355.461 343.159 347.165 311.217 339.623
C 296.393 336.123 281.523 332.805 266.709 329.279
C 266.105 328.184 266.617 325.773 266.616 324.5
C 266.613 320.335 266.613 316.169 266.607 312.003
C 266.585 296.93 265.848 281.627 266.691 266.581
C 266.88 266.119 268.088 266.296 268.587 266.293
C 270.39 266.283 272.201 266.285 274.005 266.32
C 281.498 266.466 289.006 266.33 296.501 266.323
C 317.833 266.305 339.169 266.387 360.501 266.288
C 367.503 266.256 374.504 266.222 381.506 266.249
C 385.344 266.264 389.63 265.886 393.255 266.797 Z"
opacity="1" fill="rgb(35,50,64)" fill-rule="evenodd" />
<path d="
M 278.119 345.217
C 293.676 348.603 309.271 352.846 324.56 357.344
C 336.014 360.713 347.696 363.779 358.602 368.725
C 378.671 377.826 397 393.721 406.801 413.667
C 417.425 435.284 419.988 459.495 411.711 482.33
C 409.693 487.897 406.183 493.291 402.673 498.012
C 398.72 503.329 393.995 508.209 388.62 512.105
C 387.493 512.923 386.124 513.593 385.143 514.581
C 384.893 514.833 384.496 515.848 384.144 515.886
C 381.666 513.469 379.988 510.129 378.183 507.208
C 375.682 503.162 373.078 499.182 370.555 495.149
C 362.102 481.635 353.565 468.183 345.139 454.652
C 328.917 428.602 312.626 402.526 296.971 376.131
C 290.859 365.826 283.426 355.954 278.119 345.217 Z"
opacity="1" fill="rgb(242,80,18)" fill-rule="evenodd" />
<path d="
M 278.431 653.587
C 278.448 653.39 278.465 653.194 278.482 652.998
C 283.592 652.094 289.322 652.781 294.504 652.783
C 304.504 652.785 314.504 652.78 324.503 652.775
C 341.171 652.767 357.837 652.862 374.504 652.866
C 386.183 652.869 397.948 652.612 409.608 653.217
C 409.729 653.804 408.252 654.991 407.871 655.469
C 406.389 657.332 405.205 659.476 403.927 661.482
C 399.385 668.608 395.008 675.839 390.494 682.984
C 389.258 684.94 388.062 686.938 386.87 688.922
C 386.473 689.584 386.07 690.673 385.341 691.002
C 370.399 690.766 355.451 690.623 340.502 690.615
C 332.481 690.612 324.269 690.156 316.277 690.866
C 315.448 701.784 317.135 712.924 316.151 723.827
C 330.385 723.263 344.755 723.753 359.004 723.753
C 363.838 723.753 368.673 723.73 373.507 723.763
C 375.886 723.78 378.513 723.489 380.837 724.05
C 380.851 725.124 379.581 726.156 378.975 726.998
C 377.662 728.821 376.649 730.919 375.561 732.881
C 371.921 739.445 368.157 745.953 364.389 752.443
C 362.93 754.957 361.544 758.84 359.27 760.683
C 354.737 761.431 349.59 760.785 344.997 760.757
C 335.406 760.698 325.798 760.569 316.21 760.624
C 316.881 772.674 316.203 784.928 316.194 796.998
C 316.187 807.336 316.933 817.965 316.107 828.266
C 314.912 828.561 313.242 828.28 311.999 828.282
C 308.999 828.288 305.999 828.273 302.999 828.268
C 294.894 828.252 286.527 828.964 278.458 828.465
C 278.114 824.007 278.383 819.469 278.393 814.999
C 278.41 807.666 278.372 800.332 278.373 792.998
C 278.379 770.833 278.289 748.669 278.287 726.503
C 278.285 710.169 278.36 693.833 278.384 677.498
C 278.395 669.686 277.413 661.337 278.431 653.587 Z"
opacity="1" fill="rgb(35,50,64)" fill-rule="evenodd" />
<path d="
M 330.46 251.624
C 345.952 224.805 361.169 197.83 376.966 171.178
C 383.755 159.726 390.061 147.858 397.463 136.785
C 399.036 136.228 401.331 136.654 403.009 136.655
C 407.343 136.658 411.677 136.66 416.011 136.683
C 429.843 136.757 443.676 136.673 457.509 136.721
C 490.342 136.833 523.176 136.717 556.009 136.725
C 567.009 136.728 578.008 136.728 589.008 136.744
C 594.489 136.752 600.143 137.177 605.604 136.768
C 606.683 137.835 607.288 139.602 608.028 140.921
C 609.358 143.29 610.736 145.635 612.038 148.021
C 616.068 155.407 620.358 162.694 624.608 169.956
C 634.948 187.627 645.175 205.364 655.351 223.13
C 659.348 230.108 663.518 237.025 667.392 244.07
C 668.935 246.874 670.279 249.827 671.951 252.554
C 671.495 252.867 670.531 252.459 670.012 252.435
C 668.017 252.345 666.005 252.467 664.007 252.439
C 656.839 252.341 649.67 252.34 642.502 252.36
C 623.502 252.413 604.501 252.296 585.501 252.322
C 576.838 252.333 568.097 251.99 559.444 252.39
C 557.531 255.323 556.251 258.952 554.715 262.11
C 550.906 269.939 547.181 277.818 543.675 285.787
C 535.098 305.279 526.191 324.653 517.354 344.032
C 514.908 349.397 512.744 354.886 510.296 360.252
C 509.723 361.508 509.516 363.134 508.844 364.293
C 508.502 364.196 508.217 363.1 508.052 362.768
C 507.15 360.949 506.258 359.119 505.326 357.314
C 501.726 350.343 498.145 343.372 494.508 336.421
C 483.698 315.756 473.235 294.901 462.405 274.244
C 458.631 267.043 455.434 259.472 451.363 252.434
C 450.828 251.985 449.707 252.251 449 252.271
C 447.17 252.322 445.331 252.28 443.499 252.274
C 435.833 252.252 428.166 252.277 420.5 252.281
C 400.501 252.29 380.5 252.359 360.501 252.315
C 350.464 252.293 340.229 251.615 330.215 252.159
C 330.297 251.981 330.378 251.802 330.46 251.624 Z"
opacity="1" fill="rgb(241,80,19)" fill-rule="evenodd" />
<path d="
M 344.934 565.098
C 345.068 564.649 345.164 564.193 345.284 563.74
C 348.812 563.415 352.457 563.737 356.003 563.77
C 363.002 563.835 370.003 563.924 377.003 563.927
C 380.997 563.928 384.986 563.886 388.975 564.053
C 390.883 564.134 393.105 564.011 394.933 564.628
C 396.498 565.156 397.877 566.317 399.231 567.227
C 403.064 569.803 406.279 572.884 409.203 576.456
C 411.022 578.677 412.767 581.059 413.749 583.783
C 415.608 588.939 414.909 595.123 414.784 600.499
C 414.737 602.497 414.727 604.494 414.702 606.492
C 414.698 606.857 414.824 608.113 414.554 608.356
C 391.368 608.441 368.173 608.314 344.987 608.364
C 344.483 607.985 344.709 606.52 344.717 605.897
C 344.751 603.266 344.802 600.636 344.8 598.005
C 344.793 587.076 344.198 576.007 344.934 565.098 Z"
opacity="1" fill="rgb(35,50,64)" fill-rule="evenodd" />
<path d="
M 392.975 732.61
C 394.346 706.478 408.314 681.536 429.906 666.697
C 439.131 660.358 450.135 655.864 461.064 653.564
C 467.84 652.138 474.878 651.871 481.773 652.236
C 489.045 652.62 496.29 653.849 503.181 656.269
C 520.606 662.387 535.688 674.319 545.897 689.668
C 548.894 694.174 551.046 699.21 553.289 704.114
C 558.902 716.386 560.698 730.57 560.076 743.982
C 558.246 783.396 527.514 823.934 486.637 828.23
C 480.381 828.888 474.133 828.958 467.888 828.113
C 460.147 827.066 452.588 825.151 445.432 821.94
C 435.22 817.359 426.217 811.151 418.311 803.226
C 410.608 795.503 403.977 786.182 399.953 775.983
C 394.391 761.887 392.179 747.78 392.975 732.61 Z
M 429.955 737.63
C 428.014 765.211 450.974 791.497 479.331 789.713
C 483.9 789.426 488.442 788.417 492.606 786.487
C 496.906 784.493 500.985 782.277 504.57 779.143
C 509.326 774.987 513.186 770.264 516.123 764.668
C 519.608 758.03 521.756 750.506 522.244 743.016
C 523.381 725.563 515.379 707.399 500.564 697.658
C 485.795 687.949 465.162 688.651 450.587 698.338
C 445.148 701.953 440.286 707.428 436.922 712.996
C 432.313 720.626 430.571 728.868 429.955 737.63 Z"
opacity="1" fill="rgb(35,50,64)" fill-rule="evenodd" />
<path d="
M 393.255 266.797
C 397.041 265.385 402.494 266.285 406.501 266.28
C 413.169 266.27 419.835 266.352 426.503 266.344
C 429.888 266.34 433.794 265.829 437.1 266.653
C 438.318 268.229 438.752 271.049 439.553 272.915
C 441.605 277.697 443.868 282.391 445.943 287.167
C 451.779 300.601 457.908 313.907 463.644 327.377
C 473.904 351.471 484.677 375.369 495.135 399.38
C 498.198 406.413 501.193 413.484 504.355 420.473
C 506.074 424.272 508.251 427.892 509.388 431.932
C 509.304 431.851 509.131 434.016 509.08 434.669
C 508.925 436.647 508.757 438.625 508.642 440.606
C 508.307 446.395 508.445 452.205 508.457 458.007
C 508.482 469.605 508.313 481.205 508.38 492.803
C 508.41 498.191 508.571 503.468 508.164 508.835
C 508.071 510.065 508.363 511.172 508.07 512.378
C 507.427 514.534 505.947 516.933 505.64 519.081
C 505.469 517.829 504.401 516.683 503.921 515.488
C 502.091 510.929 499.897 506.518 497.99 501.989
C 492.478 488.902 486.611 475.948 480.861 462.967
C 461.272 418.75 440.594 375.007 421.411 330.615
C 414.643 314.952 407.165 299.617 400.317 283.992
C 398.686 280.27 397.157 276.496 395.318 272.87
C 394.35 270.959 392.917 269.05 393.255 266.797 Z"
opacity="1" fill="rgb(2,158,179)" fill-rule="evenodd" />
<path d="
M 507.966 413.071
C 513.007 402.243 517.218 391.015 521.933 380.044
C 532.062 356.478 541.929 332.806 552.031 309.229
C 558.166 294.909 563.871 280.404 570.402 266.254
C 571.846 265.892 573.525 266.13 575.01 266.133
C 578.341 266.139 581.669 266.234 585 266.237
C 594.332 266.246 603.977 265.419 613.271 266.209
C 613.008 267.589 612.024 268.985 611.448 270.276
C 610.077 273.35 608.752 276.448 607.446 279.55
C 602.572 291.128 597.512 302.667 592.348 314.121
C 581.049 339.182 570.641 364.725 559.908 390.034
C 556.101 399.011 552.596 408.142 548.419 416.961
C 543.112 428.165 538.529 439.848 533.734 451.288
C 532.592 454.011 531.279 456.714 530.348 459.52
C 530.153 460.109 529.778 462.425 529.075 462.506
C 524.489 450.141 518.549 438.193 513.147 426.172
C 511.942 423.489 510.588 420.867 509.264 418.241
C 508.425 416.576 507.4 414.991 507.966 413.071 Z"
opacity="1" fill="rgb(2,156,177)" fill-rule="evenodd" />
<path d="
M 509.388 431.932
C 511.667 434.691 512.559 439.251 514.069 442.497
C 517.048 448.901 520.671 455.011 523.453 461.508
C 524.415 463.752 526.399 466.941 526.424 469.406
C 526.436 470.629 525.632 471.957 525.159 473.053
C 524.088 475.531 522.873 477.942 521.783 480.412
C 518.155 488.623 514.543 496.835 510.724 504.955
C 509.674 507.186 509.63 510.495 508.07 512.378
C 508.363 511.172 508.071 510.065 508.164 508.835
C 508.571 503.468 508.41 498.191 508.38 492.803
C 508.313 481.205 508.482 469.605 508.457 458.007
C 508.445 452.205 508.307 446.395 508.642 440.606
C 508.757 438.625 508.925 436.647 509.08 434.669
C 509.131 434.016 509.304 431.851 509.388 431.932 Z"
opacity="1" fill="rgb(221,221,219)" fill-rule="evenodd" />
<path d="
M 573.992 663.619
C 574.342 660.168 574.022 656.603 574.124 653.138
C 574.653 652.681 575.81 652.885 576.5 652.881
C 578.835 652.869 581.17 652.867 583.506 652.884
C 592.663 652.947 601.822 652.909 610.979 652.904
C 618.641 652.9 626.302 652.877 633.964 652.906
C 640.983 652.933 648.117 652.894 654.964 654.636
C 663.669 656.85 671.455 661.313 678.072 667.354
C 701.307 688.566 701.421 729.61 679.804 751.984
C 675.422 756.52 670.23 760.755 664.262 763.038
C 665.327 763.862 666.141 765.803 666.958 766.919
C 669.621 770.552 672.181 774.258 674.802 777.923
C 683.093 789.514 690.886 801.556 699.509 812.894
C 702.325 816.597 704.836 820.587 707.342 824.504
C 707.938 825.436 708.644 826.289 709.256 827.21
C 709.357 827.362 710.031 828.104 709.894 828.229
C 700.62 828.558 691.28 828.283 681.999 828.285
C 676.726 828.286 671.144 828.843 665.908 828.399
C 664.269 827.52 663.08 824.368 661.96 822.883
C 657.968 817.588 654.291 811.986 650.52 806.53
C 643.611 796.535 636.698 786.536 629.74 776.578
C 627.704 773.664 625.387 770.92 623.159 768.154
C 622.144 766.893 620.688 765.507 620.148 763.951
C 619.619 762.424 619.871 760.407 619.875 758.811
C 619.882 755.206 619.928 751.601 619.939 747.996
C 619.947 745.33 619.915 742.664 619.925 739.998
C 619.93 738.609 619.703 736.996 620.212 735.688
C 625.212 735.594 630.215 735.508 635.224 735.536
C 638.475 735.554 642.123 735.822 645.244 734.749
C 660.983 729.338 665.231 706.042 652.839 695.152
C 645.804 688.97 635.724 690.36 627.003 690.362
C 623.17 690.363 619.337 690.409 615.504 690.371
C 614.438 690.361 611.948 689.936 611.172 690.691
C 611.647 722.984 610.001 755.327 611.07 787.612
C 611.403 797.68 611.004 807.924 610.957 818.014
C 610.942 821.401 610.558 824.937 610.804 828.305
C 602.076 827.894 593.237 828.269 584.498 828.277
C 582.108 828.279 579.717 828.302 577.327 828.288
C 576.355 828.282 574.986 828.547 574.141 828.06
C 573.68 796.715 573.955 765.351 573.87 733.998
C 573.83 718.831 573.888 703.664 573.92 688.497
C 573.937 680.219 573.684 671.891 573.992 663.619 Z"
opacity="1" fill="rgb(36,51,64)" fill-rule="evenodd" />
<path d="
M 612.936 582.092
C 614.633 574.583 621.46 566.547 629.075 564.395
C 633.091 563.26 637.859 563.798 641.989 563.805
C 649.826 563.817 657.666 563.873 665.502 563.856
C 670.669 563.845 675.838 563.751 681.006 563.788
C 682.215 563.796 685.462 563.315 686.263 564.233
C 685.961 573.458 686.244 582.77 686.275 592.004
C 686.292 597.364 685.844 602.864 686.148 608.203
C 669.933 608.321 653.715 608.246 637.499 608.285
C 631.61 608.3 625.727 608.456 619.841 608.539
C 617.531 608.572 615.206 608.295 612.901 608.486
C 611.906 606.773 612.559 602.974 612.56 600.992
C 612.561 594.778 612.034 588.252 612.936 582.092 Z"
opacity="1" fill="rgb(36,51,65)" fill-rule="evenodd" />
<path d="
M 702.951 479.611
C 703.212 475.582 704.261 471.361 705.961 467.695
C 707.366 464.662 709.478 461.999 711.784 459.599
C 715.255 455.983 719.82 452.434 724.578 450.706
C 737.868 445.881 752.917 449.657 762.29 460.208
C 764.983 463.241 767.088 467.046 768.337 470.896
C 769.798 475.4 770.629 479.983 770.34 484.732
C 769.422 499.841 758.972 513.363 743.873 516.476
C 736.346 518.027 728.632 516.763 721.624 513.808
C 718.224 512.375 715.064 509.592 712.505 506.987
C 709.368 503.794 706.929 499.975 705.34 495.794
C 703.413 490.724 702.601 485.022 702.951 479.611 Z"
opacity="1" fill="rgb(240,79,18)" fill-rule="evenodd" />
<path d="
M 704.504 738.119
C 705.1 733.634 704.92 729.029 705.498 724.518
C 706.48 716.863 708.819 709.092 711.911 702.032
C 714.871 695.275 718.586 688.68 723.271 682.964
C 736.552 666.762 754.893 656.423 775.628 653.324
C 786.783 651.657 798.274 652.56 809.506 652.547
C 822.648 652.531 835.973 652.042 849.091 652.856
C 847.525 656.289 844.385 659.341 842.153 662.366
C 837.407 668.799 833.093 675.551 828.387 682.017
C 826.714 684.316 825.159 686.701 823.491 689.005
C 822.814 689.94 821.947 691.304 820.874 691.791
C 818.869 691.828 816.784 691.377 814.761 691.315
C 798.771 690.826 781.269 688.703 766.595 696.475
C 734.348 713.554 733.697 763.088 763.129 783.343
C 770.839 788.648 779.316 791.656 788.649 792.479
C 798.337 793.333 808.148 791.965 817.828 792.812
C 817.026 783.501 818.244 773.993 817.741 764.652
C 802.366 764.395 786.925 763.908 771.553 764.54
C 771.797 763.421 772.914 762.095 773.533 761.113
C 774.833 759.046 776.096 756.948 777.319 754.835
C 780.214 749.837 783.573 745.116 786.53 740.155
C 788.472 736.897 790.189 732.831 792.824 730.079
C 794.477 729.577 796.702 729.915 798.429 729.916
C 802.621 729.919 806.81 730.055 811.004 730.033
C 824.34 729.961 837.949 729.311 851.257 730.182
C 851.938 731.025 851.379 734.357 851.377 735.507
C 851.369 740.339 851.22 745.17 851.211 750.002
C 851.179 768.834 851.112 787.667 851.167 806.5
C 851.183 811.919 851.352 817.357 851.178 822.774
C 851.134 824.158 851.732 827.363 850.759 828.447
C 843.403 828.082 835.894 828.405 828.536 828.557
C 819.202 828.751 809.842 828.617 800.505 828.63
C 791.233 828.644 781.756 828.917 772.624 827.055
C 752.379 822.927 735.145 811.458 722.685 795.137
C 720.892 792.79 718.912 790.493 717.406 787.946
C 712.721 780.02 709.619 771.141 707.375 762.257
C 705.414 754.493 704.181 746.152 704.504 738.119 Z"
opacity="1" fill="rgb(35,50,64)" fill-rule="evenodd" />
<path d="
M 743.99 560.104
C 744.22 556.827 745.024 553.713 746.591 550.816
C 754.421 536.339 775.624 534.795 785.539 547.971
C 787.221 550.206 788.402 552.791 789.133 555.484
C 789.816 558.005 790.231 560.776 790.027 563.39
C 789.726 567.244 788.718 570.885 786.828 574.268
C 779.998 586.5 762.867 589.104 752.221 580.281
C 746.422 575.475 743.467 567.556 743.99 560.104 Z"
opacity="1" fill="rgb(1,153,173)" fill-rule="evenodd" />
<path d="
M 864.284 739.546
C 865.547 738.929 866.597 737.685 867.917 737.249
C 876.005 734.578 885.14 733.866 893.541 732.67
C 909.78 730.358 926.088 728.651 942.364 726.646
C 949.475 725.769 956.594 724.988 963.709 724.148
C 967.519 723.699 972.093 722.723 975.903 723.333
C 973.934 727.641 971.435 731.745 969.268 735.96
C 965.212 743.849 961.314 751.822 957.241 759.7
C 956.653 759.875 955.852 759.486 955.28 759.347
C 953.589 758.936 951.868 758.645 950.167 758.277
C 944.25 756.996 938.279 755.906 932.332 754.768
C 919.768 752.365 907.3 749.51 894.758 747.007
C 886.43 745.344 877.995 743.834 869.756 741.783
C 867.874 741.315 866.11 740.468 864.253 739.985
C 864.263 739.838 864.273 739.692 864.284 739.546 Z"
opacity="1" fill="rgb(1,153,174)" fill-rule="evenodd" />
<path d="
M 868.486 706.62
C 869.189 700.733 868.627 694.433 868.61 688.505
C 868.576 676.708 868.495 664.903 868.604 653.109
C 869.213 652.705 870.273 652.855 870.996 652.85
C 872.999 652.836 875 652.781 877.003 652.779
C 884.67 652.773 892.337 652.773 900.004 652.764
C 919.67 652.74 939.336 652.77 959.002 652.794
C 967.77 652.804 976.694 653.357 985.429 652.957
C 982.679 658.047 979.539 662.943 976.786 668.044
C 972.785 675.455 969.115 683.169 964.626 690.3
C 963.278 690.684 961.408 690.29 959.997 690.276
C 956.331 690.24 952.664 690.239 948.998 690.229
C 939.163 690.2 929.333 690.222 919.499 690.258
C 914.59 690.276 909.272 689.725 904.423 690.493
C 904.702 701.039 904.86 711.831 904.352 722.368
C 892.339 723.229 880.496 726.314 868.504 727.451
C 867.997 724.957 868.346 722.044 868.357 719.502
C 868.375 715.218 868.262 710.898 868.486 706.62 Z"
opacity="1" fill="rgb(35,50,64)" fill-rule="evenodd" />
<path d="
M 868.487 816.118
C 869.25 809.728 868.546 802.936 868.604 796.5
C 868.742 781.342 868.593 766.176 868.623 751.02
C 873.447 751.363 878.513 752.956 883.255 753.959
C 890.28 755.446 897.363 756.718 904.371 758.277
C 904.883 758.96 904.66 760.161 904.638 760.987
C 904.581 763.144 904.506 765.307 904.47 767.46
C 904.332 775.693 904.655 783.948 904.506 792.173
C 906.27 792.984 909.523 792.322 911.501 792.321
C 917.002 792.318 922.503 792.363 928.003 792.385
C 947.815 792.465 967.627 792.214 987.437 792.454
C 985.416 796.342 983.006 800.042 980.885 803.885
C 976.434 811.95 972.356 820.23 967.751 828.206
C 965.786 828.786 963.058 828.289 961.001 828.295
C 955.833 828.309 950.667 828.294 945.499 828.285
C 928.833 828.257 912.167 828.296 895.5 828.292
C 889.337 828.29 883.165 828.189 877.003 828.337
C 874.636 828.394 870.83 829.099 868.625 828.279
C 868.487 824.247 868.248 820.15 868.487 816.118 Z"
opacity="1" fill="rgb(35,49,63)" fill-rule="evenodd" />

</svg>