<svg xmlns="http://www.w3.org/2000/svg"
shape-rendering="geometricPrecision"
width="4000" height="4000" viewBox="0 0 1024 1024"><rect width="100%" height="100%" fill="#FDFDFC" />

<path d="
M 383.471 372.413
C 383.745 374.859 385.377 377.354 386.308 379.618
C 388.658 385.336 391.423 390.859 393.909 396.513
C 401.933 414.766 410.254 432.888 418.263 451.148
C 435.136 489.619 452.642 527.812 469.672 566.215
C 475.492 579.341 481.295 592.485 487.199 605.577
C 490.021 611.834 492.498 618.326 495.637 624.425
C 495.854 624.983 496.088 625.531 496.314 626.085
C 497.247 628.737 498.519 631.436 499.728 633.973
C 500.077 634.002 501.059 630.852 501.266 630.365
C 502.849 626.648 504.529 622.966 506.175 619.276
C 513.195 603.528 519.792 587.57 526.52 571.696
C 545.923 525.915 565.384 480.144 584.642 434.303
C 590.538 420.27 596.9 406.407 602.641 392.311
C 604.494 387.764 606.484 383.261 608.46 378.766
C 609.451 376.511 610.232 373.632 611.737 371.669
C 619.8 371.39 627.932 371.679 636.005 371.687
C 646.046 371.697 656.111 371.479 666.147 371.771
C 666.327 372.959 665.934 376.883 666.854 377.453
C 672.242 376.788 678.067 377.246 683.505 377.239
C 693.505 377.224 703.504 377.211 713.504 377.216
C 743.339 377.231 773.174 377.174 803.009 377.108
C 815.508 377.081 828.013 376.959 840.511 377.126
C 843.999 377.173 847.485 377.232 850.972 377.306
C 852.497 377.339 854.623 377.166 856.001 377.861
C 855.29 379.189 854.062 380.146 853.012 381.197
C 850.718 383.495 848.307 385.685 845.926 387.892
C 837.255 395.934 827.661 403.288 818.037 410.149
C 796.982 425.159 775.258 438.879 752.157 450.566
C 740.238 456.595 727.945 461.563 715.526 466.435
C 707.951 469.407 700.164 472.237 692.333 474.464
C 671.174 480.483 648.696 484.587 629.537 495.967
C 621.995 500.446 615.128 506.212 609.055 512.525
C 604.904 516.841 601.187 521.714 598.218 526.926
C 583.804 552.23 585.987 582.741 601.406 607.082
C 606.723 615.476 614.123 622.795 621.845 628.971
C 628.778 634.517 636.449 639.122 644.25 643.323
C 649.166 645.97 654.397 648.1 658.873 651.48
C 661.704 653.619 664.061 655.92 666.288 658.687
C 666.613 659.092 668.552 661.132 668.392 661.585
C 657.101 661.786 645.794 661.742 634.499 661.698
C 629.04 661.677 622.418 660.667 617.143 662.265
C 607.335 665.235 598.338 675.142 596.041 685.035
C 595.108 689.053 595.358 693.411 595.381 697.507
C 595.408 702.246 595.216 707.012 595.292 711.742
C 555.883 710.933 516.438 711.116 477.003 711.154
C 463.334 711.167 449.665 711.177 435.996 711.21
C 428.589 711.228 420.886 710.725 413.516 711.493
C 412.783 710.055 413.218 707.698 413.218 706.091
C 413.219 702.089 413.416 698.037 413.058 694.045
C 412.161 684.049 406.662 675.475 399.091 669.101
C 396.782 667.157 394.286 665.159 391.497 663.94
C 386.024 661.55 380.724 661.692 374.848 661.7
C 368.232 661.71 361.616 661.771 355 661.7
C 351.902 661.667 348.804 661.674 345.707 661.664
C 345.224 661.662 343.306 661.88 343.151 661.382
C 346.352 656.532 350.413 651.737 354.852 647.975
C 362.384 641.593 371.642 637.112 379.687 631.388
C 393.454 621.594 405.722 609.097 413.208 593.814
C 419.095 581.798 422.123 568.866 421.702 555.468
C 421.378 545.187 419.289 534.544 415.781 524.875
C 412.219 515.054 407.587 505.854 401.459 497.368
C 377.561 464.273 336.812 454.26 299.326 445.095
C 285.364 441.681 271.315 438.545 257.387 435.01
C 256.762 433.448 257.202 431.179 257.204 429.503
C 257.209 425.169 257.204 420.836 257.206 416.503
C 257.211 406.836 257.23 397.169 257.24 387.503
C 257.244 382.54 256.723 377.237 257.432 372.323
C 260.969 371.565 264.91 372.064 268.512 372.109
C 275.01 372.19 281.511 372.127 288.01 372.133
C 309.509 372.154 331.006 372.227 352.505 372.07
C 360.109 372.014 367.715 372.071 375.315 371.918
C 377.166 371.881 379.008 371.937 380.858 371.966
C 381.712 371.98 382.832 371.797 383.471 372.413 Z"
opacity="1" fill="rgb(35,50,64)" fill-rule="evenodd" />
<path d="
M 268.826 451.293
C 272.651 451.042 277.277 453.221 280.974 454.157
C 289.409 456.295 297.865 458.463 306.233 460.842
C 330.487 467.737 355.546 474.447 374.845 491.648
C 395.038 509.646 407.457 535.156 406.998 562.403
C 406.843 571.591 405.308 581.1 401.56 589.548
C 395.605 602.969 385.948 613.007 374.5 621.905
C 373.315 620.96 372.443 619.038 371.577 617.787
C 368.864 613.87 366.476 609.674 364.01 605.597
C 357.008 594.024 349.613 582.671 342.452 571.195
C 326.168 545.097 310.093 518.865 294.035 492.629
C 288.419 483.454 282.663 474.366 277.111 465.153
C 274.375 460.611 271.024 456.113 268.826 451.293 Z"
opacity="1" fill="rgb(240,82,21)" fill-rule="evenodd" />
<path d="
M 320.971 357.113
C 324.497 349.06 329.608 341.409 334.004 333.801
C 342.316 319.413 350.736 305.089 359.101 290.732
C 365.354 280.002 371.775 269.371 378.014 258.634
C 381.054 253.4 383.726 247.131 387.565 242.461
C 396.322 241.405 405.686 242.277 414.508 242.286
C 431.675 242.302 448.841 242.287 466.008 242.279
C 495.175 242.265 524.341 242.244 553.508 242.259
C 567.831 242.266 582.238 241.792 596.551 242.283
C 601.524 250.076 605.763 258.387 610.438 266.37
C 621.632 285.482 632.653 304.709 643.6 323.964
C 648.013 331.728 652.404 339.51 656.911 347.219
C 658.22 349.459 659.496 351.719 660.796 353.965
C 661.426 355.052 662.62 356.571 662.843 357.804
C 655.471 357.32 647.895 357.843 640.503 357.843
C 625.003 357.843 609.503 357.861 594.003 357.838
C 584.336 357.824 574.669 357.824 565.002 357.827
C 559.976 357.828 554.474 357.241 549.51 358.077
C 546.016 364.985 543.01 372.196 539.795 379.241
C 532.579 395.053 525.342 410.858 518.272 426.735
C 513.682 437.045 509.083 447.341 504.587 457.693
C 502.759 461.902 500.492 466.063 499.024 470.409
C 498.619 470.339 498.142 468.939 497.946 468.549
C 497.106 466.882 496.195 465.251 495.384 463.568
C 492.022 456.585 488.476 449.649 484.892 442.776
C 474.17 422.213 463.701 401.517 453.033 380.927
C 450.358 375.765 447.763 370.554 445.167 365.352
C 443.937 362.889 442.975 360.182 441.539 357.836
C 413.028 357.938 384.512 357.747 356 357.789
C 344.298 357.806 332.402 357.161 320.727 357.698
C 320.808 357.503 320.89 357.308 320.971 357.113 Z"
opacity="1" fill="rgb(238,82,21)" fill-rule="evenodd" />
<path d="
M 335.442 671.101
C 335.564 670.503 335.516 670.851 335.533 670.05
C 337.471 669.455 339.979 669.859 341.998 669.863
C 346.669 669.871 351.336 670.045 356.008 670.037
C 362.174 670.026 368.341 670.02 374.508 670.028
C 377.88 670.032 381.687 669.593 384.956 670.586
C 387.362 671.317 389.634 673.098 391.58 674.638
C 396.335 678.4 400.92 683.058 403.548 688.598
C 405.207 692.096 405.223 695.878 405.247 699.67
C 405.279 704.694 405.035 709.779 405.243 714.792
C 389.21 714.185 373.042 714.745 356.995 714.73
C 352.329 714.725 347.663 714.717 342.997 714.696
C 340.602 714.685 337.879 715.022 335.557 714.376
C 334.737 707.728 335.406 700.696 335.394 693.999
C 335.38 686.449 334.744 678.62 335.442 671.101 Z"
opacity="1" fill="rgb(36,50,65)" fill-rule="evenodd" />
<path d="
M 383.471 372.413
C 386.069 371.186 390.658 372.021 393.506 372.028
C 401.341 372.047 409.175 372.047 417.009 372.066
C 419.51 372.072 422.01 372.111 424.51 372.16
C 425.411 372.178 426.726 371.909 427.507 372.313
C 444.176 412.245 462.549 451.471 479.312 491.37
C 483.954 502.419 488.797 513.394 493.595 524.377
C 495.04 527.686 496.478 531.003 497.971 534.29
C 498.584 535.64 499.815 537.635 499.913 539.097
C 499.07 542.274 499.175 545.725 499.074 548.992
C 498.92 553.99 498.872 559 498.856 564.007
C 498.819 575.672 498.733 587.34 498.757 599.005
C 498.77 604.981 499.169 611.05 498.877 617.015
C 498.732 618.482 498.505 620.069 497.875 621.417
C 497.541 622.132 496.697 622.83 496.546 623.589
C 496.368 624.49 497.219 625.407 496.314 626.085
C 496.088 625.531 495.854 624.983 495.637 624.425
C 492.498 618.326 490.021 611.834 487.199 605.577
C 481.295 592.485 475.492 579.341 469.672 566.215
C 452.642 527.812 435.136 489.619 418.263 451.148
C 410.254 432.888 401.933 414.766 393.909 396.513
C 391.423 390.859 388.658 385.336 386.308 379.618
C 385.377 377.354 383.745 374.859 383.471 372.413 Z"
opacity="1" fill="rgb(2,157,179)" fill-rule="evenodd" />
<path d="
M 498.453 519.06
C 502.139 511.187 505.06 502.947 508.478 494.955
C 519.631 468.876 530.548 442.697 541.567 416.56
C 546.018 406.005 550.435 395.44 554.89 384.886
C 556.686 380.633 558.078 375.79 560.47 371.845
C 563.697 371.364 567.239 371.759 570.501 371.768
C 576.668 371.785 582.835 371.774 589.002 371.789
C 592.17 371.797 595.338 371.777 598.506 371.788
C 600.053 371.794 601.904 371.548 603.399 371.978
C 598.501 382.564 594.149 393.436 589.562 404.16
C 577.374 432.657 565.127 461.131 553.009 489.654
C 548.286 500.772 543.807 511.999 538.872 523.025
C 533.67 534.648 529 546.513 523.995 558.221
C 522.809 560.996 521.603 563.764 520.488 566.569
C 520.356 566.898 519.73 569.228 519.522 569.172
C 513.998 557.122 509.127 544.77 503.338 532.822
C 501.971 530 500.674 527.133 499.353 524.288
C 498.515 522.483 497.698 521.034 498.453 519.06 Z"
opacity="1" fill="rgb(2,157,178)" fill-rule="evenodd" />
<path d="
M 499.913 539.097
C 502.036 542.076 503.285 546.156 504.716 549.525
C 506.931 554.742 509.752 559.754 512.247 564.843
C 513.484 567.365 514.56 569.964 515.748 572.511
C 516.19 573.457 517.108 574.564 517.1 575.644
C 517.087 577.495 515.49 579.703 514.728 581.323
C 513.027 584.938 511.438 588.588 509.83 592.245
C 507.367 597.845 504.852 603.427 502.383 609.023
C 501.512 610.996 501.051 613.206 500.14 615.136
C 499.967 615.504 499.352 617.627 498.877 617.015
C 499.169 611.05 498.77 604.981 498.757 599.005
C 498.733 587.34 498.819 575.672 498.856 564.007
C 498.872 559 498.92 553.99 499.074 548.992
C 499.175 545.725 499.07 542.274 499.913 539.097 Z"
opacity="1" fill="rgb(221,222,222)" fill-rule="evenodd" />
<path d="
M 603.46 690.11
C 604.531 681.808 610.916 673.49 619.043 670.649
C 621.199 669.896 623.664 669.979 625.924 669.934
C 629.948 669.855 633.978 669.923 638.002 669.915
C 651.171 669.887 664.341 669.872 677.509 669.884
C 677.116 684.688 677.349 699.702 677.509 714.51
C 676.708 715.157 673.562 714.597 672.507 714.589
C 667.839 714.554 663.171 714.572 658.504 714.571
C 640.217 714.566 621.927 714.59 603.643 714.649
C 602.824 712.306 603.362 708.969 603.374 706.496
C 603.4 701.067 603.069 695.524 603.46 690.11 Z"
opacity="1" fill="rgb(36,50,65)" fill-rule="evenodd" />
<path d="
M 694.446 584.096
C 694.961 579.788 696.375 575.382 698.626 571.67
C 710.225 552.537 738.512 548.587 753.602 566.003
C 756.648 569.518 758.962 573.823 760.361 578.251
C 761.86 582.997 762.321 587.96 761.717 592.908
C 761.164 597.449 759.635 601.827 757.459 605.835
C 755.365 609.689 752.43 612.954 749.03 615.687
C 745.97 618.146 742.655 619.989 738.928 621.243
C 735.315 622.458 731.653 623.123 727.838 622.967
C 723.266 622.781 718.935 622.037 714.697 620.236
C 700.718 614.297 692.673 598.944 694.446 584.096 Z"
opacity="1" fill="rgb(239,81,20)" fill-rule="evenodd" />
<path d="
M 735.436 664.092
C 735.862 661.12 736.86 658.25 738.428 655.686
C 746.566 642.383 766.567 640.735 776.301 653.21
C 778.223 655.673 779.614 658.561 780.414 661.576
C 781.291 664.884 781.569 668.537 781.043 671.928
C 778.66 687.29 761.398 695.919 747.668 688.834
C 744.733 687.319 742.177 684.999 740.161 682.4
C 738.346 680.06 736.939 677.299 736.163 674.438
C 735.256 671.095 734.943 667.527 735.436 664.092 Z"
opacity="1" fill="rgb(4,154,177)" fill-rule="evenodd" />
<path d="
M 789.961 596.086
C 790.509 593.142 791.722 590.168 793.418 587.701
C 795.41 584.803 798.135 582.235 801.184 580.474
C 814.572 572.745 832.165 580.693 835.793 595.527
C 836.579 598.744 836.658 602.157 836.056 605.415
C 835.481 608.531 834.179 611.516 832.432 614.15
C 830.708 616.75 828.622 618.852 826.034 620.604
C 823.731 622.164 821.112 623.304 818.396 623.907
C 801.913 627.566 786.889 612.569 789.961 596.086 Z"
opacity="1" fill="rgb(3,155,178)" fill-rule="evenodd" />

</svg>